<svg height="72" width="154" xmlns="http://www.w3.org/2000/svg" viewBox="0 0 361.07 169.59">
    <title>packshotFichier 1</title>
    <g data-name="Calque 2">
        <g data-name="Calque 1">
            <g data-name="Calque 2">
                <g data-name="Calque 1-2">
                    <g data-name="Calque 2-2">
                        <g data-name="Calque 1-2-2" fill="#fff"><text transform="matrix(1.06 0 0 1 0 90.11)"
                                style="isolation:isolate" font-size="38.584"
                                font-family="OpenSans,Open Sans">formation</text><text
                                transform="matrix(1.06 0 0 1 0 127.57)" style="isolation:isolate" font-size="38.584"
                                font-family="OpenSans,Open Sans">alternance</text>
                            <path
                                d="M1.32 40.5c0-6.45 2.48-12.74 11.87-12.74a17.29 17.29 0 0 1 5.48.85l-1 4.91a12.44 12.44 0 0 0-4.31-.77c-4.32 0-6.12 3-6.12 7.75s2.08 7.34 6.28 7.34A13.73 13.73 0 0 0 18 47l.8 5a17.68 17.68 0 0 1-5.63.89c-9.24 0-11.84-6.09-11.84-12.37zm20.3 0c0-6.45 2.48-12.74 11.87-12.74a17.29 17.29 0 0 1 5.48.85l-1 4.91a12.49 12.49 0 0 0-4.32-.77c-4.32 0-6.12 3-6.12 7.75s2.08 7.34 6.28 7.34a13.73 13.73 0 0 0 4.48-.84l.8 5a17.7 17.7 0 0 1-5.64.89c-9.23 0-11.83-6.09-11.83-12.37zm29.21-14.93h-6v-5.11h6zm-.08 26.61H45V28.45h5.8zM12.46 166.19a8.08 8.08 0 0 1 0-16.15 7.73 7.73 0 0 1 3 .6l1.36-3.15a11.33 11.33 0 0 0-4.41-.9 11.53 11.53 0 0 0 0 23 11.45 11.45 0 0 0 6.92-2.33L17 164.7a8.1 8.1 0 0 1-4.54 1.49z" />
                            <path
                                d="M17.32 155.82a5.68 5.68 0 0 1 .52 2.3 5.79 5.79 0 0 1-1.07 3.21l2.33 2.57a8.69 8.69 0 0 0 1.33-9.53zm4.84-4.56a11.76 11.76 0 0 0-3.16-3.09L16.39 154zm-6.54 11.86A5.93 5.93 0 1 1 9.47 153a5.83 5.83 0 0 1 3-.86 5.72 5.72 0 0 1 2.2.44l-1.38 3.15a2.05 2.05 0 0 0-.81-.16 2.52 2.52 0 0 0-2.48 2.55 2.48 2.48 0 0 0 2.48 2.47 2.82 2.82 0 0 0 .76-.13zM337.81 62.85l.72.62c12.87 12.78 24 44.88 22.38 64.53-1.38 16.29-19.23 9.74-19.1 7.44.86-14.77-12.69-49.72-20.05-61.1C319.85 71.4 304.84 46 306 45.48c11-4.69 31.81 17.37 31.81 17.37zm-86.88-16.1l.6 1.18c10.12 23.51 11.11 51.41 1.22 77.63-8.18 21.7-26.75 3.68-25.61 1.32 9-18.68-2-64.42-6.15-83.43-1.08-4.93-9.18-38.72-9.14-42.52 1.43-.84 3.06-.76 4.56-.9 14.92-1.37 34.52 46.72 34.52 46.72zM297 55l.67 1c11.66 20.47 15.66 46 9.79 71.1-4.86 20.8-23.43 6.31-22.68 4 6-18.13-3.7-51-9.54-67.94-1.52-4.4-28.7-41.06-29.1-44.56 1.19-.93 13.27-5.25 14.53-4.79C278.94 20.72 297 55 297 55zM37.85 166.75h-3v-16.53h4.26l6.18 11.66v-11.66h3v16.53h-3.64l-6.8-12.91zm18.02-8.33c0-4 1.78-8.59 7.83-8.59s7.85 4.59 7.85 8.61-1.74 8.74-7.83 8.74c-5.85 0-7.85-4.39-7.85-8.74zm3.4 0c0 4.37 1.89 5.92 4.43 5.92s4.45-1.59 4.45-5.94c0-4.11-1.69-5.76-4.43-5.76s-4.45 1.65-4.45 5.76zm26.49 8.69c-3.55 0-6.67-1.74-6.67-5.76v-11.13h3.21v10c0 2.45.73 4.13 3.51 4.13s3.52-1.68 3.52-4.13v-10h3.23v11.13c0 4-3.12 5.76-6.75 5.76zm25.01-16.89h3.45L108 166.75h-2.88l-6.27-16.53h3.56l4.23 12.57zm13.07 6.78h5.27v2.65h-5.27V164h6.45v2.78h-9.59v-16.56h9.19V153h-6zm17.07 7h6.26v2.78h-9.42v-16.56h3.16zm16.21 0h6.26v2.78H154v-16.56h3.16zm16.18-7h5.26v2.65h-5.28V164h6.46v2.78h-9.6v-16.56h9.19V153h-6zm18.7-2.66v2.59h-5.8v-2.59zm6.7 4.32c0-4.41 1.64-8.76 8.29-8.76a17.49 17.49 0 0 1 3.74.47l-.52 2.89a9.44 9.44 0 0 0-3.16-.52c-3.36 0-4.93 2.15-4.93 6 0 3.62 1.81 5.45 5 5.45a12.12 12.12 0 0 0 3.33-.52l.32 2.93a15.37 15.37 0 0 1-3.76.47c-6.58 0-8.33-4-8.33-8.37zm23.61-8.44h2.95l6.35 16.53h-3.53l-1.44-4h-6l-1.4 4H216zm3.62 10.07l-2.24-6.56-2.28 6.56zm15.24 3.71h6.26v2.78H238v-16.56h3.17zm16.18-7h5.27v2.65h-5.27V164h6.46v2.78h-9.6v-16.56h9.19V153h-6zm5.6-10.91l-3.6 3.06-1.74-.34 2.54-3.13zm13.19 4.13c5.73 0 8.52 2.46 8.52 8.22 0 4.86-1.91 8.31-8.69 8.31h-4.71v-16.53zm5.16 8.2c0-3.44-1.33-5.42-5.18-5.42h-1.7v11h1.7c3.66 0 5.18-2 5.18-5.53zm10.32 0c0-4 1.79-8.59 7.83-8.59s7.85 4.59 7.85 8.61-1.74 8.74-7.83 8.74c-5.85 0-7.85-4.39-7.85-8.74zm3.4 0c0 4.37 1.89 5.92 4.43 5.92s4.46-1.59 4.46-5.94c0-4.11-1.7-5.76-4.44-5.76s-4.47 1.65-4.47 5.76zm22.84 8.33h-3v-16.53h4.26l6.17 11.66v-11.66h3v16.53h-3.63l-6.8-12.91zm22 0h-3.21v-16.53h3.21zm11.58-9.75h5.27v2.65h-5.27V164h6.45v2.78h-9.6v-16.56h9.19V153h-6z" />
                        </g>
                    </g>
                </g>
            </g>
        </g>
    </g>
</svg>
